<svg width="656" height="97" viewBox="0 0 656 97" fill="none" xmlns="http://www.w3.org/2000/svg">
<g clip-path="url(#clip0_1_10)">
<path d="M196.833 0H125.5C117.768 0 111.5 6.26801 111.5 14V82.667C111.5 90.399 117.768 96.667 125.5 96.667H196.833C204.565 96.667 210.833 90.399 210.833 82.667V14C210.833 6.26801 204.565 0 196.833 0Z" fill="#FA0000"/>
<path d="M85.333 0H14C6.26801 0 0 6.26801 0 14V82.667C0 90.399 6.26801 96.667 14 96.667H85.333C93.065 96.667 99.333 90.399 99.333 82.667V14C99.333 6.26801 93.065 0 85.333 0Z" fill="#005DC9"/>
<path opacity="0.3" d="M85.333 10.667H14C6.26801 10.667 0 16.935 0 24.667V82.667C0 90.399 6.26801 96.667 14 96.667H85.333C93.065 96.667 99.333 90.399 99.333 82.667V24.667C99.333 16.935 93.065 10.667 85.333 10.667Z" fill="url(#paint0_linear_1_10)"/>
<path opacity="0.3" d="M196.833 10.667H125.5C117.768 10.667 111.5 16.935 111.5 24.667V82.667C111.5 90.399 117.768 96.667 125.5 96.667H196.833C204.565 96.667 210.833 90.399 210.833 82.667V24.667C210.833 16.935 204.565 10.667 196.833 10.667Z" fill="url(#paint1_linear_1_10)"/>
<path opacity="0.3" d="M307.333 0H236C228.268 0 222 6.26801 222 14V82.667C222 90.399 228.268 96.667 236 96.667H307.333C315.065 96.667 321.333 90.399 321.333 82.667V14C321.333 6.26801 315.065 0 307.333 0Z" fill="url(#paint2_linear_1_10)"/>
<path d="M307.333 0H236C228.268 0 222 6.26801 222 14V82.667C222 90.399 228.268 96.667 236 96.667H307.333C315.065 96.667 321.333 90.399 321.333 82.667V14C321.333 6.26801 315.065 0 307.333 0Z" fill="#F98F25"/>
<path opacity="0.3" d="M307.333 10.667H236C228.268 10.667 222 16.935 222 24.667V82.667C222 90.399 228.268 96.667 236 96.667H307.333C315.065 96.667 321.333 90.399 321.333 82.667V24.667C321.333 16.935 315.065 10.667 307.333 10.667Z" fill="url(#paint3_linear_1_10)"/>
<path d="M418.333 0H347C339.268 0 333 6.26801 333 14V82.667C333 90.399 339.268 96.667 347 96.667H418.333C426.065 96.667 432.333 90.399 432.333 82.667V14C432.333 6.26801 426.065 0 418.333 0Z" fill="#932D93"/>
<path opacity="0.3" d="M418.333 10.667H347C339.268 10.667 333 16.935 333 24.667V82.667C333 90.399 339.268 96.667 347 96.667H418.333C426.065 96.667 432.333 90.399 432.333 82.667V24.667C432.333 16.935 426.065 10.667 418.333 10.667Z" fill="url(#paint4_linear_1_10)"/>
<path d="M528.833 0H457.5C449.768 0 443.5 6.26801 443.5 14V82.667C443.5 90.399 449.768 96.667 457.5 96.667H528.833C536.565 96.667 542.833 90.399 542.833 82.667V14C542.833 6.26801 536.565 0 528.833 0Z" fill="#31CA31"/>
<path opacity="0.3" d="M528.833 10.667H457.5C449.768 10.667 443.5 16.935 443.5 24.667V82.667C443.5 90.399 449.768 96.667 457.5 96.667H528.833C536.565 96.667 542.833 90.399 542.833 82.667V24.667C542.833 16.935 536.565 10.667 528.833 10.667Z" fill="url(#paint5_linear_1_10)"/>
<path d="M641.333 0H570C562.268 0 556 6.26801 556 14V82.667C556 90.399 562.268 96.667 570 96.667H641.333C649.065 96.667 655.333 90.399 655.333 82.667V14C655.333 6.26801 649.065 0 641.333 0Z" fill="#3298CB"/>
<path opacity="0.3" d="M641.333 10.667H570C562.268 10.667 556 16.935 556 24.667V82.667C556 90.399 562.268 96.667 570 96.667H641.333C649.065 96.667 655.333 90.399 655.333 82.667V24.667C655.333 16.935 649.065 10.667 641.333 10.667Z" fill="url(#paint6_linear_1_10)"/>
<path d="M254.61 26.645L268.275 26.702C270.562 26.702 277.538 26.76 282.512 30.419C287.712 34.25 289.544 40.768 289.544 46.656C289.544 59.349 282.744 65.981 274.907 67.41C272.45 67.802 269.961 67.9554 267.474 67.868H254.61V26.645ZM263.587 61.064C264.559 61.121 266.045 61.178 267.075 61.178C270.848 61.178 274.107 60.892 276.675 58.319C280.163 54.832 280.391 48.656 280.391 46.655C280.391 40.823 278.391 35.449 272.844 33.905C271.014 33.39 268.67 33.105 263.582 33.333L263.587 61.064Z" fill="white"/>
<path d="M388.372 26.53L402.723 67.867H393.8L390.826 58.948H374.479L371.391 67.867H362.929L377.852 26.53H388.372ZM388.601 52.259L382.883 34.65L376.766 52.259H388.601Z" fill="white"/>
<path d="M478.688 60.321L500.3 33.277L480 33.449V26.7H509.9V34.533L488.35 61.407L510.362 61.064V67.864H478.688V60.321Z" fill="white"/>
<path d="M610.372 26.53L624.723 67.867H615.8L612.826 58.948H596.479L593.391 67.867H584.929L599.852 26.53H610.372ZM610.601 52.259L604.883 34.65L598.766 52.259H610.601Z" fill="white"/>
<path d="M34.474 26.645H43.336V44.426L57.172 26.526H67.521L52.37 45.055L68.836 67.868H57.8L43.336 46.828V67.868H34.474V26.645Z" fill="white"/>
<path d="M166.372 26.53L180.723 67.867H171.8L168.827 58.948H152.478L149.391 67.867H140.929L155.852 26.53H166.372ZM166.601 52.259L160.883 34.65L154.765 52.259H166.601Z" fill="white"/>
</g>
<defs>
<linearGradient id="paint0_linear_1_10" x1="49.667" y1="10.667" x2="49.667" y2="96.667" gradientUnits="userSpaceOnUse">
<stop stop-color="#005295" stop-opacity="0"/>
<stop offset="1"/>
</linearGradient>
<linearGradient id="paint1_linear_1_10" x1="161.167" y1="10.667" x2="161.167" y2="96.667" gradientUnits="userSpaceOnUse">
<stop stop-color="#D8001A" stop-opacity="0"/>
<stop offset="1"/>
</linearGradient>
<linearGradient id="paint2_linear_1_10" x1="271.667" y1="0" x2="271.667" y2="96.667" gradientUnits="userSpaceOnUse">
<stop stop-color="#D8001A" stop-opacity="0"/>
<stop offset="1"/>
</linearGradient>
<linearGradient id="paint3_linear_1_10" x1="271.667" y1="10.667" x2="271.667" y2="96.667" gradientUnits="userSpaceOnUse">
<stop stop-color="#F08200" stop-opacity="0"/>
<stop offset="1"/>
</linearGradient>
<linearGradient id="paint4_linear_1_10" x1="382.667" y1="10.667" x2="382.667" y2="96.667" gradientUnits="userSpaceOnUse">
<stop stop-color="#860E74" stop-opacity="0"/>
<stop offset="1"/>
</linearGradient>
<linearGradient id="paint5_linear_1_10" x1="493.167" y1="10.667" x2="493.167" y2="96.667" gradientUnits="userSpaceOnUse">
<stop stop-color="#358D26" stop-opacity="0"/>
<stop offset="1"/>
</linearGradient>
<linearGradient id="paint6_linear_1_10" x1="605.667" y1="10.667" x2="605.667" y2="96.667" gradientUnits="userSpaceOnUse">
<stop stop-color="#007EBD" stop-opacity="0"/>
<stop offset="1"/>
</linearGradient>
<clipPath id="clip0_1_10">
<rect width="655.333" height="96.667" fill="white"/>
</clipPath>
</defs>
</svg>
